inDegrees=yes
name=ik_S48_A07_T02
DataType=double
version=3
OpenSimVersion=4.3-2021-08-27-4bc7ad9
endheader
time	pelvis_tilt	pelvis_list	pelvis_rotation	pelvis_tx	pelvis_ty	pelvis_tz	hip_flexion_r	hip_adduction_r	hip_rotation_r	knee_angle_r	knee_angle_r_beta	ankle_angle_r	subtalar_angle_r	mtp_angle_r	hip_flexion_l	hip_adduction_l	hip_rotation_l	knee_angle_l	knee_angle_l_beta	ankle_angle_l	subtalar_angle_l	mtp_angle_l	lumbar_extension	lumbar_bending	lumbar_rotation	arm_flex_r	arm_add_r	arm_rot_r	elbow_flex_r	pro_sup_r	wrist_flex_r	wrist_dev_r	arm_flex_l	arm_add_l	arm_rot_l	elbow_flex_l	pro_sup_l	wrist_flex_l	wrist_dev_l
13.4199999999998	-3.194975701663436	-0.4933923251241611	35.5716717057304	0	0.9399999999999999	0	36.0432400186254	-11.24636263112639	-9.920861980254976	50.51704181222817	0.8816887079910246	0	0	0	36.0432400186254	-11.24636263112639	-9.920861980254976	50.51704181222817	0.8816887079910246	0	0	0	-1.006110926359472	-4.017873885992118	4.852215494322312	88.88868200803294	-12.7450683793038	6.648702981556355	95.39170588672513	127.8662238539031	0	0	33.32011224996674	-12.01948839914015	10.63472023903426	31.27938063267072	116.6270401211074	0	0
13.4399999999998	-3.269232372247923	-0.5345268591334958	35.58539398759687	0	0.9399999999999999	0	36.04579086170477	-11.24514532923264	-9.920911598698655	50.51789291898238	0.8817035626061716	0	0	0	36.04579086170477	-11.24514532923264	-9.920911598698655	50.51789291898238	0.8817035626061716	0	0	0	-1.090905674536041	-4.007071886721528	4.866231896098725	87.83263412995356	-12.80027344129717	6.414546933841849	95.03663842156351	127.5268652421099	0	0	33.50555149116769	-11.9555116031698	10.57069326372508	31.28248110414431	116.6206740658232	0	0
13.4599999999998	-3.324031142471559	-0.5740997169408745	35.5919552838208	0	0.9399999999999999	0	36.04926676117469	-11.24348536836615	-9.920979252843029	50.51905102300633	0.8817237753344701	0	0	0	36.04926676117469	-11.24348536836615	-9.920979252843029	50.51905102300633	0.8817237753344701	0	0	0	-1.15922147832366	-4.004725146359406	4.87223205455391	86.63408434226336	-12.80311788241958	6.136310004010963	93.04960970133369	126.4957757591187	0	0	33.62381260747337	-11.94437039427957	10.50450378390313	31.28477071477799	116.6085476265973	0	0
13.4799999999998	-3.405481856341815	-0.5901945111905647	35.64382995810669	0	0.9399999999999999	0	36.05211632828902	-11.24214249502822	-9.921034247007587	50.52001193675645	0.8817405464432374	0	0	0	36.05211632828902	-11.24214249502822	-9.921034247007587	50.52001193675645	0.8817405464432374	0	0	0	-1.236027600236786	-3.967736366594965	4.820975410381354	86.79702089095557	-12.81310663060593	6.295122134181387	91.2750708635001	125.7865655442736	0	0	33.63085103990016	-11.88422724955109	10.2814603207399	31.39182868306616	116.7181035444481	0	0
13.4999999999998	-3.528882114496326	-0.638935868102527	35.62998505895801	0	0.9399999999999999	0	36.05605033238997	-11.2402646944238	-9.921110815835561	50.52132131889838	0.8817633994727808	0	0	0	36.05605033238997	-11.2402646944238	-9.921110815835561	50.52132131889838	0.8817633994727808	0	0	0	-1.364901701793282	-3.934495038277617	4.861673851031351	85.7104122714355	-12.89675494086672	5.878208361108145	92.50263249132331	126.2371530355218	0	0	33.89159361499333	-11.78169653609953	10.27083870425885	31.34990450629424	116.6196807128759	0	0
13.5199999999998	-3.627992876209314	-0.6729816292194494	35.60631171823226	0	0.9399999999999999	0	36.05897791006873	-11.23886903185199	-9.921167758572258	50.522296163006	0.8817804137121525	0	0	0	36.05897791006873	-11.23886903185199	-9.921167758572258	50.522296163006	0.8817804137121525	0	0	0	-1.465570854196325	-3.903831178517949	4.900304818324122	84.41423267209662	-12.98093684486039	5.470156473968186	92.02584139579461	125.9946172966056	0	0	33.90086884623395	-11.72938037260916	10.2299625670261	31.45496891317468	116.5346254323829	0	0
13.5399999999998	-3.719070740588647	-0.684295785560745	35.5738084130771	0	0.9399999999999999	0	36.0624873484806	-11.2371955675637	-9.921236039084215	50.52346367595099	0.8818007906571022	0	0	0	36.0624873484806	-11.2371955675637	-9.921236039084215	50.52346367595099	0.8818007906571022	0	0	0	-1.546284767945787	-3.859547995837602	4.946812290361101	83.08664771027829	-13.02914912717479	5.145132401644108	91.47025980677431	125.850716419194	0	0	33.94320918240513	-11.63214406793113	10.21662252019756	31.54698162987594	116.4997881158062	0	0
13.5599999999998	-3.771407759152035	-0.6942091721059862	35.52942316041571	0	0.9399999999999999	0	36.06531361371086	-11.23585193034793	-9.921290927200276	50.52440602777904	0.8818172377992138	0	0	0	36.06531361371086	-11.23585193034793	-9.921290927200276	50.52440602777904	0.8818172377992138	0	0	0	-1.594581818460332	-3.8370196714952	5.002974290072132	81.60142569072377	-13.09382972715002	4.720835806056331	90.9341706991747	125.7923948008889	0	0	33.93237590228015	-11.59665322085066	10.22490459090459	31.59897042749187	116.4800213896813	0	0
13.5799999999998	-3.880850659153427	-0.7112387675022485	35.48311778510367	0	0.9399999999999999	0	36.06865426119902	-11.23426210741114	-9.921355857849399	50.52551798175343	0.8818366450571976	0	0	0	36.06865426119902	-11.23426210741114	-9.921355857849399	50.52551798175343	0.8818366450571976	0	0	0	-1.693615429660857	-3.78701642043765	5.060859510288323	80.20100838923463	-13.20242202481447	4.414526389621919	90.39345569323345	125.9211004397025	0	0	34.01294073647888	-11.55350967071978	10.17256647080839	31.71278349621662	116.4787914266099	0	0
13.5999999999998	-3.966721981868901	-0.729440188832122	35.434553119159	0	0.9399999999999999	0	36.07250234058367	-11.23243099171485	-9.921430658238938	50.52679792015919	0.8818589841966008	0	0	0	36.07250234058367	-11.23243099171485	-9.921430658238938	50.52679792015919	0.8818589841966008	0	0	0	-1.774200727612961	-3.751293836318379	5.107762870641662	78.76213499512697	-13.20051464339425	4.100785235752642	89.67708540363671	126.2132143614381	0	0	34.03914773326836	-11.51141560301132	10.10821243324741	31.78987522406651	116.4992090539732	0	0
13.6199999999998	-4.05966145523358	-0.7328245638429867	35.37939501878566	0	0.9399999999999999	0	36.07573652335807	-11.23089620565317	-9.921493422838946	50.52787573401738	0.8818777955971498	0	0	0	36.07573652335807	-11.23089620565317	-9.921493422838946	50.52787573401738	0.8818777955971498	0	0	0	-1.852038099357574	-3.699608324154441	5.152338366556774	77.27531456014441	-13.16688106033161	3.888217637342496	88.87708366946967	126.4330599855087	0	0	34.17237844182663	-11.41065665525929	10.04378636768342	31.78476532221076	116.5057016122489	0	0
13.6399999999998	-4.16115407071293	-0.7474168647519046	35.34533115207083	0	0.9399999999999999	0	36.07892758896207	-11.22938261564387	-9.921555340538687	50.52893886445748	0.8818963507237078	0	0	0	36.07892758896207	-11.22938261564387	-9.921555340538687	50.52893886445748	0.8818963507237078	0	0	0	-1.943501896130966	-3.652269899220097	5.198957586041863	75.70451073764914	-13.17442881833374	3.717241244352509	88.06653082603874	126.5280275524864	0	0	34.21715737671629	-11.32123651042619	9.988123514872811	31.84771509146744	116.5071640620148	0	0
13.6599999999998	-4.291971036143105	-0.7861310361307311	35.29217288500963	0	0.9399999999999999	0	36.08150718484482	-11.22816196098011	-9.921605322433765	50.52979972877539	0.8819113756404682	0	0	0	36.08150718484482	-11.22816196098011	-9.921605322433765	50.52979972877539	0.8819113756404682	0	0	0	-2.072908250874134	-3.607683391243937	5.239633911692734	74.18057513853171	-13.18155295097706	3.594465934804088	87.14382517305741	126.5530275803794	0	0	34.32855677934803	-11.2700625502766	9.932729935939991	31.94609271652857	116.4795281136364	0	0
13.6799999999998	-4.374356118071576	-0.8036176748005709	35.22830830614283	0	0.9399999999999999	0	36.08413829667374	-11.2269183572754	-9.92165627021712	50.53067826175514	0.8819267089335523	0	0	0	36.08413829667374	-11.2269183572754	-9.92165627021712	50.53067826175514	0.8819267089335523	0	0	0	-2.150903899279129	-3.571917364771981	5.248564542504543	72.67460543002132	-13.05789193470318	3.492147922617711	86.04109685697827	126.5822147708621	0	0	34.34081713935996	-11.23750291850459	9.812632057308228	32.02393026744971	116.4285147577843	0	0
13.6999999999998	-4.446273018963197	-0.8051026469925701	35.17887115278113	0	0.9399999999999999	0	36.08682382947799	-11.22564990256983	-9.921708254489936	50.53157504839181	0.88194236081305	0	0	0	36.08682382947799	-11.22564990256983	-9.921708254489936	50.53157504839181	0.88194236081305	0	0	0	-2.210888667501807	-3.529662303274993	5.243893655458742	71.17820366695216	-12.91114371632275	3.533523366729016	84.88541760351796	126.7244653507714	0	0	34.31076587374444	-11.21260604068861	9.655521124567857	32.09961174765172	116.4047402944086	0	0
13.7199999999998	-4.63025080382544	-0.8769375788838947	35.01838928323484	0	0.9399999999999999	0	36.09106214648344	-11.22365608864573	-9.921790097362338	50.53299444743986	0.8819671339998382	0	0	0	36.09106214648344	-11.22365608864573	-9.921790097362338	50.53299444743986	0.8819671339998382	0	0	0	-2.403259404006317	-3.478853430456023	5.268036211803063	71.60578628741253	-12.76089363229261	3.77469775995932	82.22612404518772	126.703146076478	0	0	34.53649536981371	-11.17147677979012	9.466295702488193	32.2519980006089	116.3517792035892	0	0
13.7399999999998	-4.666457341455421	-0.8785941167751905	34.96483728178598	0	0.9399999999999999	0	36.09909167182247	-11.21987111799341	-9.921945476562511	50.53566723486921	0.8820137829406862	0	0	0	36.09909167182247	-11.21987111799341	-9.921945476562511	50.53566723486921	0.8820137829406862	0	0	0	-2.433595548267523	-3.456548229333292	5.278380064546335	68.67459542861182	-12.27630357420048	3.743088348629426	79.6630324251428	127.3626193067232	0	0	34.43419072473431	-11.14600407977106	9.412829464786574	32.32302497055427	116.3041540488596	0	0
13.7599999999998	-4.771735509422669	-0.8918387745029321	34.89034926241375	0	0.9399999999999999	0	36.10421369620033	-11.21745041066529	-9.922044735085697	50.53737037624036	0.8820435083652398	0	0	0	36.10421369620033	-11.21745041066529	-9.922044735085697	50.53737037624036	0.8820435083652398	0	0	0	-2.528636307130694	-3.402475598720914	5.243451625057649	67.51417873827661	-11.86503653958199	3.865062597373045	78.19559606302757	127.7441187927732	0	0	34.42430533905858	-11.06083581470193	9.308960733615327	32.46138896693598	116.2228710883362	0	0
